<svg width="0" height="0" class="hidden">
  <symbol xmlns="http://www.w3.org/2000/svg" viewBox="0 0 612 612" id="dispatcher">
    <path d="M259.107 322.451c0 16.933-13.727 30.659-30.66 30.659s-30.658-13.727-30.658-30.659 13.726-30.659 30.658-30.659c16.933 0 30.66 13.727 30.66 30.659zm124.447-30.659c-16.932 0-30.66 13.726-30.66 30.659s13.729 30.659 30.66 30.659c16.934 0 30.658-13.727 30.658-30.659s-13.725-30.659-30.658-30.659zm130.963 124.804v-3.492c-3.514 10.198-7.734 19.885-12.273 29.303.842 5.773 2.4 13.831 5.02 23.043 12.6 19.488 48.158 44.316 72.537 50.712-13.145 5.583-28.979 7.882-44.379 5.525 14.107 17.751 33.988 33.869 62.039 43.459-65.568 59.097-173.604 60.411-249.119 14.516-14.635 4.304-28.936 6.56-42.341 6.56-13.405 0-27.707-2.256-42.34-6.56-75.517 45.896-183.551 44.581-249.119-14.516 28.613-9.781 48.68-26.366 62.835-44.538-12.52.479-24.944-1.8-35.589-6.321 17.862-4.686 41.716-19.281 58.174-34.413 5.759-15.225 8.539-28.836 9.796-37.468-4.539-9.418-8.759-19.104-12.272-29.303v3.493H60.407c-29.254 0-52.969-23.716-52.969-52.969v-58.266c0-20.131 11.231-37.637 27.769-46.599.555-82.724 24.666-147.331 71.765-191.997C153.69 22.465 220.653 0 306 0c85.348 0 152.311 22.465 199.028 66.767 47.1 44.665 71.209 109.271 71.766 191.997 16.537 8.962 27.768 26.467 27.768 46.598v58.265c0 29.254-23.715 52.969-52.969 52.969h-37.076zm-22.063-93.95c0-13.63-.697-26.436-1.729-38.845-23.898-21.863-67.617-38.353-122.746-44.168 8.746 7.841 16.256 18.297 20.273 33.226-32.055-23.431-99.236-30.687-121.551-55.793l.022-.002c-35.52-23.512-44.841-57.189-45.141-43.25-1.438 66.848-48.818 118.961-101.431 126.313-.333 7.352-.606 14.773-.606 22.519 0 28.256 4.614 54.006 12.458 77.214 29.553 35.648 78.359 45.714 121.558 48.385 8.019-12.76 26.012-21.666 46.966-21.666 28.409 0 51.438 16.347 51.438 36.513 0 20.167-23.029 36.514-51.438 36.514-21.853 0-40.475-9.688-47.929-23.332-30.191-1.755-63.38-6.9-92.96-20.869 41.601 61.315 106.087 93.739 146.359 93.739 63.287-.001 186.457-79.947 186.457-226.498zm32.07-70.252h20.381C541.534 108.039 459.136 31.782 306 31.782S70.468 108.039 67.097 252.394h20.379c7.451-48.654 23.2-88.67 47.111-119.436C172.691 83.931 230.363 59.07 306 59.07c75.637 0 133.309 24.859 171.415 73.887 23.91 30.767 39.658 70.782 47.109 119.437z"></path>
  </symbol>

  <symbol xmlns="http://www.w3.org/2000/svg" viewBox="0 0 512 512" id="calendar">
    <g xmlns="http://www.w3.org/2000/svg">
      <path data-original="#000000" d="M236 230h40v40h-40z"></path>
      <path d="M452 40h-24V0h-40v40H124V0H84v40H60C26.916 40 0 66.916 0 100v352c0 33.084 26.916 60 60 60h205.762a176.385 176.385 0 01-35.663-40H60c-11.028 0-20-8.972-20-20V188h432v42.099a176.43 176.43 0 0140 35.663V100c0-33.084-26.916-60-60-60zm20 108H40v-48c0-11.028 8.972-20 20-20h24v40h40V80h264v40h40V80h24c11.028 0 20 8.972 20 20v48z" data-original="#000000"></path>
      <path d="M377 242c-74.439 0-135 60.561-135 135s60.561 135 135 135 135-60.561 135-135-60.561-135-135-135zm0 230c-52.383 0-95-42.617-95-95s42.617-95 95-95 95 42.617 95 95-42.617 95-95 95z" data-original="#000000"></path>
      <path data-original="#000000" d="M396 310h-40v87h74v-40h-34zm-240 0h40v40h-40zm-80 0h40v40H76zm0-80h40v40H76zm0 160h40v40H76zm80-160h40v40h-40zm0 160h40v40h-40z"></path>
    </g>
  </symbol>

  <symbol xmlns="http://www.w3.org/2000/svg" viewBox="0 0 512 512" id="contract">
    <g xmlns="http://www.w3.org/2000/svg">
      <path d="M352.459 220c0-11.046-8.954-20-20-20h-206c-11.046 0-20 8.954-20 20s8.954 20 20 20h206c11.046 0 20-8.954 20-20zm-226 60c-11.046 0-20 8.954-20 20s8.954 20 20 20H251.57c11.046 0 20-8.954 20-20s-8.954-20-20-20H126.459z" data-original="#000000"></path>
      <path d="M173.459 472H106.57c-22.056 0-40-17.944-40-40V80c0-22.056 17.944-40 40-40h245.889c22.056 0 40 17.944 40 40v123c0 11.046 8.954 20 20 20s20-8.954 20-20V80c0-44.112-35.888-80-80-80H106.57c-44.112 0-80 35.888-80 80v352c0 44.112 35.888 80 80 80h66.889c11.046 0 20-8.954 20-20s-8.954-20-20-20z" data-original="#000000"></path>
      <path d="M467.884 289.572c-23.394-23.394-61.458-23.395-84.837-.016l-109.803 109.56a20.005 20.005 0 00-5.01 8.345l-23.913 78.725a20 20 0 0024.476 25.087l80.725-22.361a19.993 19.993 0 008.79-5.119l109.573-109.367c23.394-23.394 23.394-61.458-.001-84.854zM333.776 451.768l-40.612 11.25 11.885-39.129 74.089-73.925 28.29 28.29-73.652 73.514zM439.615 346.13l-3.875 3.867-28.285-28.285 3.862-3.854c7.798-7.798 20.486-7.798 28.284 0 7.798 7.798 7.798 20.486.014 28.272zM332.459 120h-206c-11.046 0-20 8.954-20 20s8.954 20 20 20h206c11.046 0 20-8.954 20-20s-8.954-20-20-20z" data-original="#000000"></path>
    </g>
  </symbol>

  <symbol xmlns="http://www.w3.org/2000/svg" viewBox="0 0 484 484" id="money">
    <path d="M212 106.7c-57.1 0-103.4 46.3-103.4 103.4 0 57.1 46.2 103.5 103.4 103.5s103.4-46.3 103.4-103.5c-.1-57.1-46.3-103.3-103.4-103.4zm0 186.9c-46.1 0-83.4-37.4-83.4-83.4s37.4-83.4 83.4-83.4 83.4 37.4 83.4 83.4-37.4 83.3-83.4 83.4z"></path>
    <path d="M444.9 144H424v-24.4C424 98 406.4 80 384.9 80H39.1C17.6 80 0 98 0 119.6v181c0 21.6 17.5 39.2 39.1 39.4H60v24.4C60 386 77.6 404 99.1 404h345.8c21.5 0 39.1-18 39.1-39.6v-181c0-21.7-17.5-39.3-39.1-39.4zM39.1 320c-10.6-.1-19.1-8.8-19.1-19.4v-181C20 109 28.6 100 39.1 100h345.8c10.5 0 19.1 9 19.1 19.6v181c0 10.6-8.5 19.2-19.1 19.4H39.1zM464 364.4c0 10.6-8.6 19.6-19.1 19.6H99.1c-10.5 0-19.1-9-19.1-19.6V340h304.9c21.6-.1 39.1-17.7 39.1-39.4V164h20.9c10.6.1 19.1 8.8 19.1 19.4v181z"></path>
    <path d="M62.6 110.6c-17.1 0-31 13.9-31 31s13.9 31 31 31 31-13.9 31-31-13.9-31-31-31zm0 41.9c-6.1 0-11-4.9-11-11s4.9-11 11-11 11 4.9 11 11-4.9 11-11 11zm298.7 94.3c-17.1 0-31 13.9-31 31s13.9 31 31 31 31-13.9 31-31-13.9-30.9-31-31zm0 42c-6.1 0-11-4.9-11-11s4.9-11 11-11 11 4.9 11 11c0 6-4.9 10.9-11 11zm-113.7-63.7c-4.1-16.3-18.7-27.7-35.5-27.7-9.1.1-16.6-7.2-16.7-16.3-.1-9.1 7.2-16.6 16.3-16.7h.3c9.1 0 16.5 7.4 16.5 16.5 0 5.5 4.5 10 10 10 5.6 0 10.1-4.4 10.2-10 .1-16.8-11.4-31.5-27.7-35.5v-3c0-5.5-4.5-10-10-10s-10 4.5-10 10v3.8c-19.2 6.2-29.7 26.7-23.6 45.9 4.8 15.1 18.8 25.3 34.7 25.3 9.1.1 16.5 7.5 16.4 16.6-.1 9.1-7.5 16.5-16.6 16.4-9.1-.1-16.4-7.4-16.4-16.5 0-5.5-4.5-10-10-10-5.4 0-9.8 4.4-9.8 9.8v.2c-.1 15.9 10.2 29.9 25.3 34.7v4.8c0 5.5 4.5 10 10 10s10-4.5 10-10v-4c19.6-4.9 31.5-24.7 26.6-44.3z"></path>
  </symbol>

  <symbol xmlns="http://www.w3.org/2000/svg" viewBox="0 0 400 400" id="wall-clock">
    <g xmlns="http://www.w3.org/2000/svg">
      <path d="M341.424 58.579C303.649 20.804 253.419 0 200 0S96.351 20.804 58.576 58.579C20.801 96.354 0 146.577 0 200s20.801 103.646 58.576 141.421C96.351 379.196 146.581 400 200 400s103.649-20.804 141.424-58.579C379.199 303.646 400 253.423 400 200S379.199 96.354 341.424 58.579zM200 366.38c-91.74 0-166.384-74.637-166.384-166.38S108.26 33.62 200 33.62 366.384 108.257 366.384 200 291.74 366.38 200 366.38z" data-original="#000000"></path>
      <path d="M138.802 306.204c-6.447-3.72-14.698-1.517-18.431 4.931-3.719 6.455-1.506 14.707 4.941 18.428a13.41 13.41 0 006.736 1.814c4.658 0 9.188-2.419 11.69-6.744 3.723-6.457 1.517-14.707-4.936-18.429zm-6.996-210.446c2.298 0 4.632-.586 6.764-1.822 6.437-3.74 8.633-12 4.891-18.438-3.749-6.446-11.998-8.633-18.438-4.894-6.446 3.74-8.632 11.991-4.891 18.437a13.478 13.478 0 0011.674 6.717zM75.34 143.814a13.489 13.489 0 006.726 1.804c4.661 0 9.201-2.418 11.694-6.753 3.721-6.446 1.506-14.697-4.941-18.418-6.455-3.73-14.705-1.516-18.427 4.938-3.722 6.457-1.506 14.699 4.948 18.429zm124.429-66.363h.017c7.452-.019 13.479-6.065 13.473-13.516-.021-7.452-6.064-13.479-13.517-13.461-7.453.009-13.479 6.056-13.462 13.506.009 7.443 6.045 13.471 13.489 13.471zM75.461 256.475c-6.447 3.73-8.643 11.98-4.901 18.429a13.494 13.494 0 0011.685 6.726 13.41 13.41 0 006.753-1.823c6.446-3.729 8.64-11.991 4.9-18.429-3.739-6.446-11.991-8.644-18.437-4.903zm1.99-56.334c-.01-7.453-6.056-13.479-13.506-13.471-7.451.009-13.479 6.055-13.47 13.497.01 7.452 6.046 13.479 13.489 13.479h.007c7.454-.009 13.49-6.056 13.48-13.505zm122.613 122.408c-7.44.01-13.479 6.047-13.479 13.497.01 7.452 6.049 13.489 13.499 13.479 7.45 0 13.489-6.047 13.479-13.498.001-7.442-6.043-13.478-13.499-13.478zm124.531-66.214c-6.444-3.729-14.693-1.526-18.427 4.921-3.729 6.446-1.525 14.697 4.921 18.428a13.47 13.47 0 006.743 1.813c4.661 0 9.191-2.408 11.684-6.735 3.732-6.446 1.526-14.698-4.921-18.427zm11.415-70.14c-7.45.019-13.479 6.075-13.459 13.525v.28c0 7.451 6.035 13.488 13.486 13.488 7.453 0 13.489-6.037 13.489-13.488v-.344c-.017-7.451-6.066-13.47-13.516-13.461zm-74.939-92.474a13.366 13.366 0 006.724 1.804c4.661 0 9.201-2.418 11.694-6.753 3.722-6.457 1.507-14.707-4.948-18.428-6.457-3.712-14.709-1.498-18.42 4.959-3.719 6.455-1.506 14.707 4.95 18.418zm.241 212.42c-6.446 3.729-8.649 11.979-4.91 18.427a13.495 13.495 0 0011.684 6.734 13.39 13.39 0 006.743-1.82c6.447-3.73 8.643-11.982 4.914-18.431-3.733-6.447-11.985-8.651-18.431-4.91zm56.391-160.922c2.308 0 4.632-.596 6.771-1.833 6.439-3.749 8.626-12 4.877-18.437-3.74-6.447-12.001-8.624-18.438-4.884-6.439 3.739-8.625 11.999-4.884 18.437a13.484 13.484 0 0011.674 6.717zm-32.944 64.237l-70.832-4.831-7.07-103.744a6.806 6.806 0 00-13.579 0l-6.945 101.862-11.337-.773a5.463 5.463 0 00-5.84 5.458V222.4a5.473 5.473 0 005.84 5.459l9.67-.66-.698 10.209a6.808 6.808 0 006.79 7.265h18.639a6.803 6.803 0 006.802-6.804c0-.331-.871-12.765-.871-12.765l69.434-4.734a5.472 5.472 0 005.101-5.458 5.479 5.479 0 00-5.104-5.456z" data-original="#000000"></path>
    </g>
  </symbol>

</svg>