<svg id="money" enable-background="new 0 0 64 64" height="512" viewBox="0 0 64 64" width="512" xmlns="http://www.w3.org/2000/svg"><path d="m57 36v-1-27c0-.551-.448-1-1-1h-52c-.552 0-1 .449-1 1v28c0 .551.448 1 1 1h52c.552 0 1-.449 1-1zm-2-4h-1c-1.103 0-2 .897-2 2v1h-44v-1c0-1.103-.897-2-2-2h-1v-20h1c1.103 0 2-.897 2-2v-1h43v1c0 1.654 1.346 3 3 3h1z"/><path d="m17 22c0-4.634 2.444-8.698 6.104-11h-13.231c-.362 1.404-1.47 2.511-2.873 2.874v16.253c1.403.363 2.511 1.47 2.873 2.874h13.231c-3.66-2.303-6.104-6.367-6.104-11.001zm-6 3h-2v-6h2zm4 0h-2v-6h2z"/><path d="m41 22c0-6.065-4.935-11-11-11s-11 4.935-11 11 4.935 11 11 11 11-4.935 11-11zm-13-1h4c2.206 0 4 1.794 4 4s-1.794 4-4 4h-1v2h-2v-2h-1c-2.206 0-4-1.794-4-4h2c0 1.103.897 2 2 2h4c1.103 0 2-.897 2-2s-.897-2-2-2h-4c-2.206 0-4-1.794-4-4s1.794-4 4-4h1v-2h2v2h1c2.206 0 4 1.794 4 4h-2c0-1.103-.897-2-2-2h-4c-1.103 0-2 .897-2 2s.897 2 2 2z"/><path d="m49.101 11h-12.205c3.66 2.302 6.104 6.366 6.104 11s-2.444 8.698-6.104 11h13.231c.362-1.404 1.47-2.511 2.873-2.874v-15.227c-1.956-.398-3.501-1.943-3.899-3.899zm-2.101 14h-2v-6h2zm4 0h-2v-6h2z"/><path d="m60 27h-1v8 1 16h-1c-1.103 0-2 .897-2 2v1h-44v-1c0-1.103-.897-2-2-2h-1v-13h-2v17c0 .551.448 1 1 1h52c.552 0 1-.449 1-1v-28c0-.551-.448-1-1-1z"/><path d="m57 50.126v-11.31c-.314.112-.648.184-1 .184h-1v6h-2v-6h-2v6h-2v-6h-2.368c.239.99.368 1.994.368 3 0 4.634-2.444 8.698-6.104 11h13.231c.362-1.404 1.47-2.511 2.873-2.874z"/><path d="m11 39v11.126c1.403.363 2.511 1.47 2.873 2.874h13.231c-3.66-2.302-6.104-6.366-6.104-11 0-1.006.129-2.01.368-3h-2.368v6h-2v-6h-2v6h-2v-6z"/><path d="m45 42c0-1.006-.151-2.012-.434-3h-14.566c0 1.103.897 2 2 2h4c2.206 0 4 1.794 4 4s-1.794 4-4 4h-1v2h-2v-2h-1c-2.206 0-4-1.794-4-4h2c0 1.103.897 2 2 2h4c1.103 0 2-.897 2-2s-.897-2-2-2h-4c-2.206 0-4-1.794-4-4h-4.566c-.283.988-.434 1.994-.434 3 0 6.065 4.935 11 11 11s11-4.935 11-11z"/></svg>