<?xml version="1.0" encoding="iso-8859-1"?>
<!-- Generator: Adobe Illustrator 19.0.0, SVG Export Plug-In . SVG Version: 6.00 Build 0)  -->
<svg version="1.1" id="Capa_1" xmlns="http://www.w3.org/2000/svg" xmlns:xlink="http://www.w3.org/1999/xlink" x="0px" y="0px"
	 viewBox="0 0 484 484" style="enable-background:new 0 0 484 484;" xml:space="preserve">
<g>
	<g>
		<path d="M212,106.7c-57.1,0-103.4,46.3-103.4,103.4c0,57.1,46.2,103.5,103.4,103.5s103.4-46.3,103.4-103.5
			C315.3,153,269.1,106.8,212,106.7z M212,293.6c-46.1,0-83.4-37.4-83.4-83.4s37.4-83.4,83.4-83.4s83.4,37.4,83.4,83.4
			S258,293.5,212,293.6z"/>
	</g>
</g>
<g>
	<g>
		<path d="M444.9,144H424v-24.4C424,98,406.4,80,384.9,80H39.1C17.6,80,0,98,0,119.6v181c0,21.6,17.5,39.2,39.1,39.4H60v24.4
			C60,386,77.6,404,99.1,404h345.8c21.5,0,39.1-18,39.1-39.6v-181C484,161.7,466.5,144.1,444.9,144z M39.1,320
			c-10.6-0.1-19.1-8.8-19.1-19.4v-181C20,109,28.6,100,39.1,100h345.8c10.5,0,19.1,9,19.1,19.6v181c0,10.6-8.5,19.2-19.1,19.4H39.1z
			 M464,364.4c0,10.6-8.6,19.6-19.1,19.6H99.1c-10.5,0-19.1-9-19.1-19.6V340h304.9c21.6-0.1,39.1-17.7,39.1-39.4V164h20.9
			c10.6,0.1,19.1,8.8,19.1,19.4V364.4z"/>
	</g>
</g>
<g>
	<g>
		<path d="M62.6,110.6c-17.1,0-31,13.9-31,31c0,17.1,13.9,31,31,31c17.1,0,31-13.9,31-31C93.6,124.5,79.7,110.6,62.6,110.6z
			 M62.6,152.5c-6.1,0-11-4.9-11-11s4.9-11,11-11c6.1,0,11,4.9,11,11S68.7,152.5,62.6,152.5z"/>
	</g>
</g>
<g>
	<g>
		<path d="M361.3,246.8c-17.1,0-31,13.9-31,31c0,17.1,13.9,31,31,31s31-13.9,31-31C392.3,260.7,378.4,246.9,361.3,246.8z
			 M361.3,288.8c-6.1,0-11-4.9-11-11c0-6.1,4.9-11,11-11s11,4.9,11,11C372.3,283.8,367.4,288.7,361.3,288.8z"/>
	</g>
</g>
<g>
	<g>
		<path d="M247.6,225.1c-4.1-16.3-18.7-27.7-35.5-27.7c-9.1,0.1-16.6-7.2-16.7-16.3c-0.1-9.1,7.2-16.6,16.3-16.7c0.1,0,0.2,0,0.3,0
			c9.1,0,16.5,7.4,16.5,16.5c0,5.5,4.5,10,10,10c5.6,0,10.1-4.4,10.2-10c0.1-16.8-11.4-31.5-27.7-35.5v-3c0-5.5-4.5-10-10-10
			s-10,4.5-10,10v3.8c-19.2,6.2-29.7,26.7-23.6,45.9c4.8,15.1,18.8,25.3,34.7,25.3c9.1,0.1,16.5,7.5,16.4,16.6
			c-0.1,9.1-7.5,16.5-16.6,16.4c-9.1-0.1-16.4-7.4-16.4-16.5c0-5.5-4.5-10-10-10c-5.4,0-9.8,4.4-9.8,9.8c0,0.1,0,0.1,0,0.2
			c-0.1,15.9,10.2,29.9,25.3,34.7v4.8c0,5.5,4.5,10,10,10s10-4.5,10-10v-4C240.6,264.5,252.5,244.7,247.6,225.1z"/>
	</g>
</g>
<g>
</g>
<g>
</g>
<g>
</g>
<g>
</g>
<g>
</g>
<g>
</g>
<g>
</g>
<g>
</g>
<g>
</g>
<g>
</g>
<g>
</g>
<g>
</g>
<g>
</g>
<g>
</g>
<g>
</g>
</svg>
