<?xml version="1.0"?>
<svg xmlns="http://www.w3.org/2000/svg" xmlns:xlink="http://www.w3.org/1999/xlink" xmlns:svgjs="http://svgjs.com/svgjs" version="1.1" width="512" height="512" x="0" y="0" viewBox="0 0 601 601.33485" style="enable-background:new 0 0 512 512" xml:space="preserve" class=""><g><path xmlns="http://www.w3.org/2000/svg" d="m204.996094 69.878906c-71.671875 0-129.773438 58.101563-129.773438 129.773438s58.101563 129.773437 129.773438 129.773437 129.773437-58.101562 129.773437-129.773437c-.082031-71.636719-58.136719-129.691406-129.773437-129.773438zm-29.949219 139.757813h-19.964844v-19.964844h19.964844zm49.914063 0h-39.929688v-19.964844h39.929688zm29.949218 0h-19.964844v-19.964844h19.964844zm0 0" fill="#000000" data-original="#000000" style="" class=""/><path xmlns="http://www.w3.org/2000/svg" d="m204.996094 0c-115.722656.132812-209.503906 93.914062-209.636719 209.636719 0 103.75 171.4375 309.539062 209.636719 354.113281 38.207031-44.585938 209.636718-250.402344 209.636718-354.113281-.132812-115.722657-93.910156-209.503907-209.636718-209.636719zm0 349.394531c-82.699219 0-149.738282-67.042969-149.738282-149.742187 0-82.699219 67.039063-149.738282 149.738282-149.738282 82.703125 0 149.738281 67.039063 149.738281 149.738282-.089844 82.660156-67.074219 149.648437-149.738281 149.742187zm0 0" fill="#000000" data-original="#000000" style="" class=""/></g></svg>
