<svg width="0" height="0" class="hidden">
  <symbol xmlns="http://www.w3.org/2000/svg" viewBox="0 0 97 97" id="clocks">
    <path d="M97.001 48.5C97.001 75.244 75.244 97 48.5 97 21.756 97.001-.002 75.244-.002 48.5S21.756-.002 48.5-.002C75.244-.002 97 21.756 97 48.5zm-10.319 0c0-21.054-17.13-38.181-38.182-38.181-21.053 0-38.182 17.127-38.182 38.18 0 21.055 17.129 38.182 38.182 38.182S86.682 69.554 86.682 48.5zm-8.911 2.496a3.994 3.994 0 01-3.994 3.993h-25.79a3.994 3.994 0 01-3.993-3.993V20.795a3.994 3.994 0 017.987 0v26.207h21.796a3.994 3.994 0 013.994 3.994z"></path>
  </symbol>
  <symbol xmlns="http://www.w3.org/2000/svg" viewBox="0 0 432 351" id="palette">
    <path d="M425.376 86.116c-6.59 14.2-17.818 24.354-30.855 27.928-.168.332-.338.656-.51.96-8.982 15.79-17.908 30.476-28.084 46.217.25 7.281-.335 14.29-1.736 20.84-5.596 26.2-26.747 49-53.927 58.162-10.586 13.74-20.715 26.133-30.116 36.842-35.023 39.908-47.349 42.199-51.4 42.952-4.494.837-8.813.003-12.22-2.364-10.726-7.452-6.327-23.254-4.672-29.202 2.686-9.643 7.82-22.257 15.259-37.489 3.51-7.187 7.53-14.942 11.952-23.062-3.778-1.206-7.561-1.815-11.264-1.815-13.016 0-22.01 7.694-24.057 20.58-.893 5.62-.335 11.203.256 17.112.574 5.74 1.166 11.662.3 17.59-1.47 10.044-4.958 20.032-10.364 29.69-14.223 25.383-37.977 39.941-65.171 39.941-10.946 0-22.11-2.336-33.177-6.944-44.9-18.69-78.107-62.26-91.108-119.538a187.551 187.551 0 01-2.488-13.08C-6 159.339 9.592 105.928 44.77 64.899 80.132 23.656 130.736 0 183.604 0c2.095 0 4.215.037 6.301.11 47.346 1.66 93.403 22.354 126.364 56.777 7.045 7.358 13.72 15.597 19.856 24.506l.359-.46c-3.352-13.64 3.369-28.032 18.062-38.59 10.39-7.466 20.003-10.89 29.299-14.204 11.529-4.109 21.48-7.656 29.065-18.3a6.006 6.006 0 015.615-2.474 6.004 6.004 0 014.855 3.755c10.91 27.635 11.62 54.27 1.996 74.995zm-145.632 3.812c-1.514-6.673-5.536-12.355-11.32-16a25.485 25.485 0 00-13.61-3.943c-8.863 0-16.969 4.475-21.685 11.97-3.644 5.79-4.814 12.654-3.299 19.326 1.515 6.672 5.536 12.354 11.322 16a25.496 25.496 0 0013.61 3.943c8.862 0 16.968-4.475 21.683-11.97 3.642-5.79 4.814-12.653 3.3-19.326zm-28.857 163.193c-8.06 15.777-13.852 29.094-16.882 38.796 7.851-6.349 18.04-16.6 29.683-29.878 20.845-23.77 45.252-55.926 68.725-90.542 14.286-21.06 26.085-39.668 37.059-58.45-4.518-1.556-8.942-3.827-13.17-6.764a70.286 70.286 0 01-7.015-5.537c-12.998 16.872-26.682 35.84-39.62 54.922-23.492 34.63-44.367 69.24-58.78 97.453zM104.168 143.533c7.517-11.95 3.92-27.797-8.022-35.325a25.49 25.49 0 00-13.613-3.943c-8.862 0-16.967 4.475-21.68 11.968-3.645 5.791-4.817 12.655-3.302 19.328 1.514 6.673 5.535 12.354 11.32 16a25.495 25.495 0 0013.612 3.943c8.86 0 16.967-4.475 21.685-11.971zm-51.815 87.703c1.514 6.672 5.534 12.353 11.318 16a25.504 25.504 0 0013.615 3.943c8.862 0 16.967-4.475 21.68-11.968 3.646-5.792 4.818-12.655 3.303-19.325-1.515-6.674-5.536-12.356-11.32-16.001a25.505 25.505 0 00-13.612-3.943c-8.863 0-16.967 4.474-21.682 11.97-3.642 5.79-4.814 12.653-3.302 19.324zm81.97-152.14c1.514 6.674 5.534 12.355 11.317 16a25.488 25.488 0 0013.61 3.943c8.863 0 16.968-4.475 21.685-11.97 7.517-11.952 3.92-27.8-8.022-35.327a25.495 25.495 0 00-13.61-3.942c-8.862 0-16.967 4.475-21.682 11.97-3.643 5.791-4.815 12.654-3.299 19.326z"></path>
  </symbol>
  <symbol xmlns="http://www.w3.org/2000/svg" viewBox="0 0 418 512" id="calculator">
    <path d="M417.999 49.78v412.44c0 27.448-22.335 49.78-49.79 49.78H49.79C22.336 512 0 489.669 0 462.22V49.78C0 22.332 22.335 0 49.79 0h318.42c27.454 0 49.79 22.332 49.789 49.78zM70.507 86.526v60.423c0 10.659 8.644 19.3 19.305 19.3h238.375c10.661 0 19.305-8.641 19.305-19.3V86.526c0-10.659-8.644-19.3-19.305-19.3H89.811c-10.661 0-19.305 8.641-19.305 19.3zm62.479 315.326a7.789 7.789 0 00-7.79-7.788H51.803a7.789 7.789 0 00-7.79 7.788v41.015a7.79 7.79 0 007.79 7.787h73.393a7.788 7.788 0 007.79-7.787zm0-87.282a7.789 7.789 0 00-7.79-7.788H51.803a7.789 7.789 0 00-7.79 7.788v41.015a7.79 7.79 0 007.79 7.787h73.393a7.788 7.788 0 007.79-7.787zm0-88.027a7.79 7.79 0 00-7.79-7.787H51.803a7.788 7.788 0 00-7.79 7.787v41.015a7.789 7.789 0 007.79 7.788h73.393a7.789 7.789 0 007.79-7.788zm121.618 175.309a7.789 7.789 0 00-7.789-7.788h-73.394a7.789 7.789 0 00-7.788 7.788v41.015c0 4.3 3.487 7.787 7.788 7.787h73.393a7.788 7.788 0 007.79-7.787zm0-87.282a7.789 7.789 0 00-7.789-7.788h-73.394a7.789 7.789 0 00-7.788 7.788v41.015c0 4.3 3.487 7.787 7.788 7.787h73.393a7.788 7.788 0 007.79-7.787zm0-88.027c0-4.3-3.487-7.787-7.789-7.787h-73.394a7.788 7.788 0 00-7.788 7.787v41.015a7.788 7.788 0 007.788 7.788h73.393a7.789 7.789 0 007.79-7.788zm119.38 88.027a7.788 7.788 0 00-7.788-7.788h-73.393a7.789 7.789 0 00-7.789 7.788v128.297c0 4.3 3.487 7.787 7.789 7.787h73.393a7.788 7.788 0 007.789-7.787V314.57zm0-88.027c0-4.3-3.486-7.787-7.788-7.787h-73.393a7.788 7.788 0 00-7.789 7.787v41.015a7.788 7.788 0 007.789 7.788h73.393a7.79 7.79 0 007.789-7.788z"></path>
  </symbol>
  <symbol xmlns="http://www.w3.org/2000/svg" viewBox="0 0 512 512" id="left-arrow">
    <path d="M492 236H68.442l70.164-69.824c7.829-7.792 7.859-20.455.067-28.284-7.792-7.83-20.456-7.859-28.285-.068l-104.504 104-.018.019c-7.809 7.792-7.834 20.496-.002 28.314l.018.019 104.504 104c7.828 7.79 20.492 7.763 28.285-.068 7.792-7.829 7.762-20.492-.067-28.284L68.442 276H492c11.046 0 20-8.954 20-20s-8.954-20-20-20z"></path>
  </symbol>
  <symbol xmlns="http://www.w3.org/2000/svg" viewBox="0 0 512 512" id="left-arrow_disabled">
    <path d="M492 236H68.442l70.164-69.824c7.829-7.792 7.859-20.455.067-28.284-7.792-7.83-20.456-7.859-28.285-.068l-104.504 104-.018.019c-7.809 7.792-7.834 20.496-.002 28.314l.018.019 104.504 104c7.828 7.79 20.492 7.763 28.285-.068 7.792-7.829 7.762-20.492-.067-28.284L68.442 276H492c11.046 0 20-8.954 20-20s-8.954-20-20-20z" fill="#969696" data-original="#000000" xmlns="http://www.w3.org/2000/svg"></path>
  </symbol>
  <symbol xmlns="http://www.w3.org/2000/svg" viewBox="0 0 512 512" id="right-arrow">
    <path d="M506.134 241.843l-.018-.019-104.504-104c-7.829-7.791-20.492-7.762-28.285.068-7.792 7.829-7.762 20.492.067 28.284L443.558 236H20c-11.046 0-20 8.954-20 20s8.954 20 20 20h423.557l-70.162 69.824c-7.829 7.792-7.859 20.455-.067 28.284 7.793 7.831 20.457 7.858 28.285.068l104.504-104 .018-.019c7.833-7.818 7.808-20.522-.001-28.314z"></path>
  </symbol>
  <symbol xmlns="http://www.w3.org/2000/svg" viewBox="0 0 512 512" id="right-arrow_disabled">
    <path d="M506.134 241.843l-.018-.019-104.504-104c-7.829-7.791-20.492-7.762-28.285.068-7.792 7.829-7.762 20.492.067 28.284L443.558 236H20c-11.046 0-20 8.954-20 20s8.954 20 20 20h423.557l-70.162 69.824c-7.829 7.792-7.859 20.455-.067 28.284 7.793 7.831 20.457 7.858 28.285.068l104.504-104 .018-.019c7.833-7.818 7.808-20.522-.001-28.314z" fill="#696969" data-original="#000000" xmlns="http://www.w3.org/2000/svg"></path>
  </symbol>

  <symbol xmlns="http://www.w3.org/2000/svg" viewBox="0 0 490.667 490.667" id="arrow-up">
    <path xmlns="http://www.w3.org/2000/svg" d="M245.333 0C109.839 0 0 109.839 0 245.333s109.839 245.333 245.333 245.333 245.333-109.839 245.333-245.333C490.514 109.903 380.764.153 245.333 0z"  data-original="#ffc107"></path>
    <path xmlns="http://www.w3.org/2000/svg" d="M252.885 66.944a10.987 10.987 0 00-15.083 0L88.469 216.448A10.668 10.668 0 0096 234.667h74.667v159.829c0 5.891 4.776 10.667 10.667 10.667h128c5.891 0 10.667-4.776 10.667-10.667V234.667h74.667a10.667 10.667 0 007.552-18.219L252.885 66.944z" fill="#fafafa" data-original="#fafafa"></path>
  </symbol>

  <symbol xmlns="http://www.w3.org/2000/svg" viewBox="0 0 601 601.335" id="address">
    <path d="M204.996 69.879c-71.672 0-129.773 58.101-129.773 129.773s58.101 129.774 129.773 129.774S334.77 271.324 334.77 199.652c-.082-71.636-58.137-129.691-129.774-129.773zm-29.95 139.758h-19.964v-19.965h19.965zm49.915 0h-39.93v-19.965h39.93zm29.95 0h-19.966v-19.965h19.965zm0 0" data-original="#000000"></path>
    <path d="M204.996 0C89.273.133-4.508 93.914-4.64 209.637c0 103.75 171.438 309.539 209.637 354.113 38.207-44.586 209.637-250.402 209.637-354.113C414.5 93.914 320.723.133 204.996 0zm0 349.395c-82.7 0-149.738-67.043-149.738-149.743 0-82.699 67.039-149.738 149.738-149.738 82.703 0 149.738 67.04 149.738 149.738-.09 82.66-67.074 149.649-149.738 149.743zm0 0" data-original="#000000"></path>
  </symbol>

  <symbol xmlns="http://www.w3.org/2000/svg" viewBox="0 0 463.009 463.009" id="phone">
    <path d="M462.692 381.085c-1.472-11.126-7.895-20.719-17.62-26.318L330.846 289c-13.99-8.055-31.738-5.71-43.157 5.708l-22.499 22.499c-5.987 5.988-15.459 6.518-22.028 1.231-17.737-14.272-35.201-29.979-51.906-46.685-16.705-16.705-32.412-34.168-46.685-51.906-5.287-6.57-4.758-16.041 1.231-22.029l22.498-22.499c11.418-11.417 13.766-29.163 5.709-43.156L108.242 17.937C102.642 8.211 93.05 1.789 81.924.317c-11.127-1.475-22.06 2.236-29.996 10.172L18.027 44.391c-23.661 23.662-24.041 66.944-1.07 121.875 22.088 52.818 63.308 110.962 116.065 163.721 52.759 52.758 110.903 93.978 163.722 116.066 27.039 11.307 51.253 16.957 71.697 16.956 21.088 0 38.163-6.013 50.178-18.027l33.901-33.902c7.935-7.936 11.643-18.869 10.172-29.995zm-139.33-79.086l114.226 65.767c5.649 3.252 9.379 8.824 10.233 15.286.718 5.423-.691 10.763-3.885 15.066L292.131 311.48l6.165-6.165c6.631-6.631 16.941-7.994 25.066-3.316zM79.956 15.188c6.463.855 12.034 4.585 15.286 10.234l65.767 114.226c4.68 8.127 3.316 18.435-3.315 25.065l-5.663 5.663L64.917 19.073c3.561-2.637 7.82-4.069 12.26-4.069.921 0 1.85.061 2.779.184zm328.055 419.187c-18.798 18.798-57.244 18.01-105.48-2.162-51.06-21.352-107.491-61.424-158.901-112.833-51.41-51.41-91.482-107.842-112.834-158.901-20.173-48.237-20.96-86.683-2.162-105.482l25.167-25.168 87.245 151.532-5.851 5.851c-11.415 11.416-12.409 29.488-2.311 42.04 14.609 18.156 30.68 36.024 47.764 53.108 17.086 17.085 34.954 33.156 53.109 47.765 12.55 10.098 30.622 9.105 42.04-2.312l5.338-5.338 152.016 86.759-25.14 25.141z"></path>
  </symbol>
</svg>