<?xml version="1.0" encoding="iso-8859-1"?><!DOCTYPE svg PUBLIC "-//W3C//DTD SVG 1.1//EN" "http://www.w3.org/Graphics/SVG/1.1/DTD/svg11.dtd"><svg viewBox="0 0 612 612" xmlns="http://www.w3.org/2000/svg" xmlns:xlink="http://www.w3.org/1999/xlink"><style>:root>svg{display:none}:root>svg:target{display:block}</style><svg viewBox="0 0 512 512" id="address" xmlns="http://www.w3.org/2000/svg"><path d="M341.476 338.285c54.483-85.493 47.634-74.827 49.204-77.056C410.516 233.251 421 200.322 421 166 421 74.98 347.139 0 256 0 165.158 0 91 74.832 91 166c0 34.3 10.704 68.091 31.19 96.446l48.332 75.84C118.847 346.227 31 369.892 31 422c0 18.995 12.398 46.065 71.462 67.159C143.704 503.888 198.231 512 256 512c108.025 0 225-30.472 225-90 0-52.117-87.744-75.757-139.524-83.715zm-194.227-92.34a15.57 15.57 0 00-.517-.758C129.685 221.735 121 193.941 121 166c0-75.018 60.406-136 135-136 74.439 0 135 61.009 135 136 0 27.986-8.521 54.837-24.646 77.671-1.445 1.906 6.094-9.806-110.354 172.918L147.249 245.945zM256 482c-117.994 0-195-34.683-195-60 0-17.016 39.568-44.995 127.248-55.901l55.102 86.463a14.998 14.998 0 0025.298 0l55.101-86.463C411.431 377.005 451 404.984 451 422c0 25.102-76.313 60-195 60z"/><path d="M256 91c-41.355 0-75 33.645-75 75s33.645 75 75 75 75-33.645 75-75-33.645-75-75-75zm0 120c-24.813 0-45-20.187-45-45s20.187-45 45-45 45 20.187 45 45-20.187 45-45 45z"/></svg><svg viewBox="0 0 512 512" id="arrow-up" xmlns="http://www.w3.org/2000/svg"><path d="M256 0C114.512 0 0 114.497 0 256c0 141.488 114.497 256 256 256 141.488 0 256-114.497 256-256C512 114.512 397.503 0 256 0zm95.276 274.753h-47.917v101.688c0 9.425-7.641 17.067-17.067 17.067h-60.584c-9.425 0-17.067-7.641-17.067-17.067V274.753h-47.918c-14.214 0-22.165-16.4-13.456-27.565l95.276-122.128c6.836-8.761 20.093-8.742 26.913 0l95.276 122.128c8.712 11.167.758 27.565-13.456 27.565z"/></svg><svg viewBox="0 0 512 512" id="calculator" xmlns="http://www.w3.org/2000/svg"><path d="M408 56H104c-8.837 0-16 7.164-16 16v128c0 8.836 7.163 16 16 16h304c8.837 0 16-7.164 16-16V72c0-8.836-7.163-16-16-16zm-16 128H120V88h272z"/><path d="M440 0H72C45.532 0 24 21.533 24 48v416c0 26.467 21.532 48 48 48h368c26.468 0 48-21.533 48-48V48c0-26.467-21.532-48-48-48zm16 464c0 8.822-7.178 16-16 16H72c-8.822 0-16-7.178-16-16V48c0-8.822 7.178-16 16-16h368c8.822 0 16 7.178 16 16z"/><path d="M168 240h-64c-8.837 0-16 7.164-16 16v64c0 8.836 7.163 16 16 16h64c8.837 0 16-7.164 16-16v-64c0-8.836-7.163-16-16-16zm-16 64h-32v-32h32zM288 240h-64c-8.837 0-16 7.164-16 16v64c0 8.836 7.163 16 16 16h64c8.837 0 16-7.164 16-16v-64c0-8.836-7.163-16-16-16zm-16 64h-32v-32h32zM168 360h-64c-8.837 0-16 7.164-16 16v64c0 8.836 7.163 16 16 16h64c8.837 0 16-7.164 16-16v-64c0-8.836-7.163-16-16-16zm-16 64h-32v-32h32zM288 360h-64c-8.837 0-16 7.164-16 16v64c0 8.836 7.163 16 16 16h64c8.837 0 16-7.164 16-16v-64c0-8.836-7.163-16-16-16zm-16 64h-32v-32h32zM408 240h-64c-8.837 0-16 7.164-16 16v184c0 8.836 7.163 16 16 16h64c8.837 0 16-7.164 16-16V256c0-8.836-7.163-16-16-16zm-16 184h-32V272h32z"/></svg><svg viewBox="0 0 512 512" id="calendar" xmlns="http://www.w3.org/2000/svg"><circle cx="386" cy="210" r="20"/><path d="M432 40h-26V20c0-11.046-8.954-20-20-20s-20 8.954-20 20v20h-91V20c0-11.046-8.954-20-20-20s-20 8.954-20 20v20h-90V20c0-11.046-8.954-20-20-20s-20 8.954-20 20v20H80C35.888 40 0 75.888 0 120v312c0 44.112 35.888 80 80 80h153c11.046 0 20-8.954 20-20s-8.954-20-20-20H80c-22.056 0-40-17.944-40-40V120c0-22.056 17.944-40 40-40h25v20c0 11.046 8.954 20 20 20s20-8.954 20-20V80h90v20c0 11.046 8.954 20 20 20s20-8.954 20-20V80h91v20c0 11.046 8.954 20 20 20s20-8.954 20-20V80h26c22.056 0 40 17.944 40 40v114c0 11.046 8.954 20 20 20s20-8.954 20-20V120c0-44.112-35.888-80-80-80z"/><path d="M391 270c-66.72 0-121 54.28-121 121s54.28 121 121 121 121-54.28 121-121-54.28-121-121-121zm0 202c-44.663 0-81-36.336-81-81s36.337-81 81-81 81 36.336 81 81-36.337 81-81 81z"/><path d="M420 371h-9v-21c0-11.046-8.954-20-20-20s-20 8.954-20 20v41c0 11.046 8.954 20 20 20h29c11.046 0 20-8.954 20-20s-8.954-20-20-20z"/><circle cx="299" cy="210" r="20"/><circle cx="212" cy="297" r="20"/><circle cx="125" cy="210" r="20"/><circle cx="125" cy="297" r="20"/><circle cx="125" cy="384" r="20"/><circle cx="212" cy="384" r="20"/><circle cx="212" cy="210" r="20"/></svg><svg viewBox="0 0 512 512" id="clocks" xmlns="http://www.w3.org/2000/svg"><path d="M347.216 301.211l-71.387-53.54V138.609c0-10.966-8.864-19.83-19.83-19.83-10.966 0-19.83 8.864-19.83 19.83v118.978c0 6.246 2.935 12.136 7.932 15.864l79.318 59.489a19.713 19.713 0 0011.878 3.966c6.048 0 11.997-2.717 15.884-7.952 6.585-8.746 4.8-21.179-3.965-27.743z"/><path d="M256 0C114.833 0 0 114.833 0 256s114.833 256 256 256 256-114.833 256-256S397.167 0 256 0zm0 472.341c-119.275 0-216.341-97.066-216.341-216.341S136.725 39.659 256 39.659c119.295 0 216.341 97.066 216.341 216.341S375.275 472.341 256 472.341z"/></svg><svg viewBox="0 0 512 512" id="contract" xmlns="http://www.w3.org/2000/svg"><path d="M352.459 220c0-11.046-8.954-20-20-20h-206c-11.046 0-20 8.954-20 20s8.954 20 20 20h206c11.046 0 20-8.954 20-20zM126.459 280c-11.046 0-20 8.954-20 20s8.954 20 20 20H251.57c11.046 0 20-8.954 20-20s-8.954-20-20-20H126.459z"/><path d="M173.459 472H106.57c-22.056 0-40-17.944-40-40V80c0-22.056 17.944-40 40-40h245.889c22.056 0 40 17.944 40 40v123c0 11.046 8.954 20 20 20s20-8.954 20-20V80c0-44.112-35.888-80-80-80H106.57c-44.112 0-80 35.888-80 80v352c0 44.112 35.888 80 80 80h66.889c11.046 0 20-8.954 20-20s-8.954-20-20-20z"/><path d="M467.884 289.572c-23.394-23.394-61.458-23.395-84.837-.016l-109.803 109.56a20.005 20.005 0 00-5.01 8.345l-23.913 78.725a20 20 0 0024.476 25.087l80.725-22.361a19.993 19.993 0 008.79-5.119l109.573-109.367c23.394-23.394 23.394-61.458-.001-84.854zM333.776 451.768l-40.612 11.25 11.885-39.129 74.089-73.925 28.29 28.29-73.652 73.514zM439.615 346.13l-3.875 3.867-28.285-28.285 3.862-3.854c7.798-7.798 20.486-7.798 28.284 0 7.798 7.798 7.798 20.486.014 28.272zM332.459 120h-206c-11.046 0-20 8.954-20 20s8.954 20 20 20h206c11.046 0 20-8.954 20-20s-8.954-20-20-20z"/></svg><svg viewBox="0 0 612 612" id="dispatcher" xmlns="http://www.w3.org/2000/svg"><path d="M259.107 322.451c0 16.933-13.727 30.659-30.66 30.659s-30.658-13.727-30.658-30.659 13.726-30.659 30.658-30.659c16.933 0 30.66 13.727 30.66 30.659zm124.447-30.659c-16.932 0-30.66 13.726-30.66 30.659s13.729 30.659 30.66 30.659c16.934 0 30.658-13.727 30.658-30.659s-13.725-30.659-30.658-30.659zm130.963 124.804v-3.492c-3.514 10.198-7.734 19.885-12.273 29.303.842 5.773 2.4 13.831 5.02 23.043 12.6 19.488 48.158 44.316 72.537 50.712-13.145 5.583-28.979 7.882-44.379 5.525 14.107 17.751 33.988 33.869 62.039 43.459-65.568 59.097-173.604 60.411-249.119 14.516-14.635 4.304-28.936 6.56-42.341 6.56-13.405 0-27.707-2.256-42.34-6.56-75.517 45.896-183.551 44.581-249.119-14.516 28.613-9.781 48.68-26.366 62.835-44.538-12.52.479-24.944-1.8-35.589-6.321 17.862-4.686 41.716-19.281 58.174-34.413 5.759-15.225 8.539-28.836 9.796-37.468-4.539-9.418-8.759-19.104-12.272-29.303v3.493H60.407c-29.254 0-52.969-23.716-52.969-52.969v-58.266c0-20.131 11.231-37.637 27.769-46.599.555-82.724 24.666-147.331 71.765-191.997C153.69 22.465 220.653 0 306 0c85.348 0 152.311 22.465 199.028 66.767 47.1 44.665 71.209 109.271 71.766 191.997 16.537 8.962 27.768 26.467 27.768 46.598v58.265c0 29.254-23.715 52.969-52.969 52.969h-37.076zm-22.063-93.95c0-13.63-.697-26.436-1.729-38.845-23.898-21.863-67.617-38.353-122.746-44.168 8.746 7.841 16.256 18.297 20.273 33.226-32.055-23.431-99.236-30.687-121.551-55.793l.022-.002c-35.52-23.512-44.841-57.189-45.141-43.25-1.438 66.848-48.818 118.961-101.431 126.313-.333 7.352-.606 14.773-.606 22.519 0 28.256 4.614 54.006 12.458 77.214 29.553 35.648 78.359 45.714 121.558 48.385 8.019-12.76 26.012-21.666 46.966-21.666 28.409 0 51.438 16.347 51.438 36.513 0 20.167-23.029 36.514-51.438 36.514-21.853 0-40.475-9.688-47.929-23.332-30.191-1.755-63.38-6.9-92.96-20.869 41.601 61.315 106.087 93.739 146.359 93.739 63.287-.001 186.457-79.947 186.457-226.498zm32.07-70.252h20.381C541.534 108.039 459.136 31.782 306 31.782S70.468 108.039 67.097 252.394h20.379c7.451-48.654 23.2-88.67 47.111-119.436C172.691 83.931 230.363 59.07 306 59.07c75.637 0 133.309 24.859 171.415 73.887 23.91 30.767 39.658 70.782 47.109 119.437z"/></svg><svg viewBox="0 0 64 64" id="money" xmlns="http://www.w3.org/2000/svg"><path d="M57 36V8c0-.551-.448-1-1-1H4c-.552 0-1 .449-1 1v28c0 .551.448 1 1 1h52c.552 0 1-.449 1-1zm-2-4h-1c-1.103 0-2 .897-2 2v1H8v-1c0-1.103-.897-2-2-2H5V12h1c1.103 0 2-.897 2-2V9h43v1c0 1.654 1.346 3 3 3h1z"/><path d="M17 22c0-4.634 2.444-8.698 6.104-11H9.873A4.015 4.015 0 017 13.874v16.253a4.015 4.015 0 012.873 2.874h13.231C19.444 30.698 17 26.634 17 22zm-6 3H9v-6h2zm4 0h-2v-6h2z"/><path d="M41 22c0-6.065-4.935-11-11-11s-11 4.935-11 11 4.935 11 11 11 11-4.935 11-11zm-13-1h4c2.206 0 4 1.794 4 4s-1.794 4-4 4h-1v2h-2v-2h-1c-2.206 0-4-1.794-4-4h2c0 1.103.897 2 2 2h4c1.103 0 2-.897 2-2s-.897-2-2-2h-4c-2.206 0-4-1.794-4-4s1.794-4 4-4h1v-2h2v2h1c2.206 0 4 1.794 4 4h-2c0-1.103-.897-2-2-2h-4c-1.103 0-2 .897-2 2s.897 2 2 2z"/><path d="M49.101 11H36.896C40.556 13.302 43 17.366 43 22s-2.444 8.698-6.104 11h13.231A4.015 4.015 0 0153 30.126V14.899A5.013 5.013 0 0149.101 11zM47 25h-2v-6h2zm4 0h-2v-6h2z"/><path d="M60 27h-1v25h-1c-1.103 0-2 .897-2 2v1H12v-1c0-1.103-.897-2-2-2H9V39H7v17c0 .551.448 1 1 1h52c.552 0 1-.449 1-1V28c0-.551-.448-1-1-1z"/><path d="M57 50.126v-11.31A2.966 2.966 0 0156 39h-1v6h-2v-6h-2v6h-2v-6h-2.368c.239.99.368 1.994.368 3 0 4.634-2.444 8.698-6.104 11h13.231A4.015 4.015 0 0157 50.126zM11 39v11.126A4.015 4.015 0 0113.873 53h13.231C23.444 50.698 21 46.634 21 42c0-1.006.129-2.01.368-3H19v6h-2v-6h-2v6h-2v-6z"/><path d="M45 42c0-1.006-.151-2.012-.434-3H30c0 1.103.897 2 2 2h4c2.206 0 4 1.794 4 4s-1.794 4-4 4h-1v2h-2v-2h-1c-2.206 0-4-1.794-4-4h2c0 1.103.897 2 2 2h4c1.103 0 2-.897 2-2s-.897-2-2-2h-4c-2.206 0-4-1.794-4-4h-4.566A10.888 10.888 0 0023 42c0 6.065 4.935 11 11 11s11-4.935 11-11z"/></svg><svg viewBox="0 0 431.985 431.985" id="palette" xmlns="http://www.w3.org/2000/svg"><path d="M423.257 51.829a6 6 0 00-10.465-1.279c-7.581 10.629-17.529 14.172-29.053 18.275-9.292 3.31-18.901 6.73-29.286 14.186-14.687 10.544-21.405 24.917-18.055 38.54l-.358.459c-6.133-8.897-12.806-17.126-19.848-24.474-32.947-34.378-78.984-55.046-126.311-56.703-2.085-.073-4.204-.11-6.298-.11-52.846 0-103.428 23.624-138.775 64.813C9.646 146.512-5.939 199.853 2.051 251.882a187.257 187.257 0 002.487 13.063c12.996 57.202 46.189 100.717 91.069 119.383 11.063 4.602 22.222 6.934 33.163 6.934 27.183 0 50.926-14.539 65.143-39.889 5.404-9.646 8.891-19.621 10.36-29.651.866-5.92.274-11.835-.3-17.567-.591-5.9-1.149-11.476-.256-17.09 2.047-12.869 11.036-20.553 24.047-20.553 3.701 0 7.483.609 11.26 1.812-4.422 8.11-8.438 15.854-11.947 23.032-7.437 15.212-12.567 27.81-15.252 37.44-1.655 5.939-6.052 21.722 4.67 29.164 3.405 2.363 7.722 3.197 12.215 2.361 4.049-.752 16.369-3.041 51.378-42.896 9.396-10.695 19.521-23.072 30.104-36.794 27.168-9.15 48.31-31.921 53.903-58.087 1.4-6.541 1.984-13.541 1.735-20.812 10.172-15.72 19.094-30.388 28.072-46.156.172-.304.342-.628.51-.96 13.031-3.569 24.254-13.71 30.842-27.891 9.618-20.697 8.909-47.297-1.997-74.896zm-146.872 98.005c-4.713 7.485-12.814 11.954-21.673 11.954-4.81 0-9.515-1.361-13.605-3.937-5.782-3.642-9.803-9.317-11.316-15.98s-.345-13.518 3.298-19.301c4.714-7.485 12.816-11.954 21.675-11.954 4.811 0 9.515 1.361 13.604 3.938 5.782 3.64 9.802 9.315 11.316 15.979 1.513 6.664.342 13.518-3.299 19.301zm33.207 46.353c12.934-19.057 26.612-38 39.604-54.85a70.137 70.137 0 007.012 5.53c4.227 2.933 8.648 5.201 13.164 6.754-10.969 18.758-22.763 37.342-37.043 58.375-23.463 34.571-47.859 66.684-68.695 90.424-11.638 13.26-21.823 23.498-29.671 29.839 3.029-9.69 8.818-22.989 16.875-38.746 14.407-28.177 35.273-62.741 58.754-97.326zm-227.086-.164a25.5 25.5 0 01-13.607-3.938c-5.782-3.641-9.801-9.314-11.315-15.979-1.514-6.664-.342-13.519 3.301-19.302 4.711-7.484 12.813-11.953 21.671-11.953 4.812 0 9.517 1.361 13.607 3.938 11.936 7.518 15.532 23.345 8.019 35.279-4.716 7.486-12.819 11.955-21.676 11.955zm-26.818 56.335c4.713-7.486 12.814-11.955 21.673-11.955a25.51 25.51 0 0113.606 3.938c5.782 3.641 9.801 9.315 11.315 15.979 1.515 6.662.343 13.516-3.301 19.301-4.711 7.483-12.813 11.953-21.671 11.953a25.51 25.51 0 01-13.609-3.938c-5.782-3.642-9.8-9.315-11.313-15.979-1.512-6.662-.339-13.517 3.3-19.299zm81.932-151.944c4.713-7.485 12.815-11.954 21.673-11.954a25.5 25.5 0 0113.604 3.937c11.937 7.516 15.533 23.344 8.019 35.28-4.715 7.486-12.817 11.955-21.675 11.955-4.81 0-9.515-1.361-13.605-3.938-5.781-3.64-9.799-9.314-11.313-15.979-1.516-6.663-.344-13.517 3.297-19.301z"/></svg><svg viewBox="0 0 512.076 512.076" id="phone" xmlns="http://www.w3.org/2000/svg"><path d="M498.639 395.039l-103.646-69.12c-13.153-8.701-30.784-5.838-40.508 6.579l-30.191 38.818a12.903 12.903 0 01-16.546 3.482l-5.743-3.166c-19.038-10.377-42.726-23.296-90.453-71.04s-60.672-71.45-71.049-90.453l-3.149-5.743a12.92 12.92 0 013.413-16.606l38.792-30.182c12.412-9.725 15.279-27.351 6.588-40.508l-69.12-103.646C108.12.056 90.25-3.966 76.461 4.323L33.12 30.358A61.136 61.136 0 005.242 66.539c-15.607 56.866-3.866 155.008 140.706 299.597 115.004 114.995 200.619 145.92 259.465 145.92a151.181 151.181 0 0040.107-5.239 61.079 61.079 0 0036.181-27.878l26.061-43.315c8.301-13.792 4.281-31.673-9.123-40.585zm-5.581 31.829l-26.001 43.341a44.103 44.103 0 01-26.027 20.173c-52.497 14.413-144.213 2.475-283.008-136.32S7.29 123.559 21.703 71.054a44.17 44.17 0 0120.198-26.061l43.341-26.001c5.983-3.6 13.739-1.855 17.604 3.959l37.547 56.371 31.514 47.266c3.774 5.707 2.534 13.356-2.85 17.579l-38.801 30.182c-11.808 9.029-15.18 25.366-7.91 38.332l3.081 5.598c10.906 20.002 24.465 44.885 73.967 94.379 49.502 49.493 74.377 63.053 94.37 73.958l5.606 3.089c12.965 7.269 29.303 3.898 38.332-7.91l30.182-38.801c4.224-5.381 11.87-6.62 17.579-2.85l103.637 69.12c5.818 3.862 7.563 11.622 3.958 17.604zM290.161 85.39c80.081.089 144.977 64.986 145.067 145.067 0 4.713 3.82 8.533 8.533 8.533s8.533-3.82 8.533-8.533c-.099-89.503-72.63-162.035-162.133-162.133-4.713 0-8.533 3.82-8.533 8.533s3.82 8.533 8.533 8.533z"/><path d="M290.161 136.59c51.816.061 93.806 42.051 93.867 93.867a8.533 8.533 0 0017.066 0c-.071-61.238-49.696-110.863-110.933-110.933-4.713 0-8.533 3.82-8.533 8.533s3.82 8.533 8.533 8.533z"/><path d="M290.161 187.79c23.552.028 42.638 19.114 42.667 42.667a8.533 8.533 0 0017.066 0c-.038-32.974-26.759-59.696-59.733-59.733-4.713 0-8.533 3.82-8.533 8.533s3.82 8.533 8.533 8.533z"/></svg></svg>