<svg xmlns="http://www.w3.org/2000/svg" width="418" height="512" viewBox="0 0 418 512"><g><g><path d="M417.999 49.78v412.44c0 27.448-22.335 49.78-49.79 49.78H49.79C22.336 512 0 489.669 0 462.22V49.78C0 22.332 22.335 0 49.79 0h318.42c27.454 0 49.79 22.332 49.789 49.78zM70.507 86.526v60.423c0 10.659 8.644 19.3 19.305 19.3h238.375c10.661 0 19.305-8.641 19.305-19.3V86.526c0-10.659-8.644-19.3-19.305-19.3H89.811c-10.661 0-19.305 8.641-19.305 19.3zm62.479 315.326a7.789 7.789 0 0 0-7.79-7.788H51.803a7.789 7.789 0 0 0-7.79 7.788v41.015c0 4.3 3.488 7.787 7.79 7.787h73.393a7.788 7.788 0 0 0 7.79-7.787zm0-87.282a7.789 7.789 0 0 0-7.79-7.788H51.803a7.789 7.789 0 0 0-7.79 7.788v41.015c0 4.3 3.488 7.787 7.79 7.787h73.393a7.788 7.788 0 0 0 7.79-7.787zm0-88.027c0-4.3-3.488-7.787-7.79-7.787H51.803a7.788 7.788 0 0 0-7.79 7.787v41.015a7.789 7.789 0 0 0 7.79 7.788h73.393a7.789 7.789 0 0 0 7.79-7.788zm121.618 175.309a7.789 7.789 0 0 0-7.789-7.788h-73.394a7.789 7.789 0 0 0-7.788 7.788v41.015c0 4.3 3.487 7.787 7.788 7.787h73.393a7.788 7.788 0 0 0 7.79-7.787zm0-87.282a7.789 7.789 0 0 0-7.789-7.788h-73.394a7.789 7.789 0 0 0-7.788 7.788v41.015c0 4.3 3.487 7.787 7.788 7.787h73.393a7.788 7.788 0 0 0 7.79-7.787zm0-88.027c0-4.3-3.487-7.787-7.789-7.787h-73.394a7.788 7.788 0 0 0-7.788 7.787v41.015a7.788 7.788 0 0 0 7.788 7.788h73.393a7.789 7.789 0 0 0 7.79-7.788zm119.38 88.027a7.788 7.788 0 0 0-7.788-7.788h-73.393a7.789 7.789 0 0 0-7.789 7.788v128.297c0 4.3 3.487 7.787 7.789 7.787h73.393c4.301 0 7.789-3.486 7.789-7.787V314.57zm0-88.027c0-4.3-3.486-7.787-7.788-7.787h-73.393a7.788 7.788 0 0 0-7.789 7.787v41.015a7.788 7.788 0 0 0 7.789 7.788h73.393c4.301 0 7.789-3.487 7.789-7.788z"/></g></g></svg>