<svg xmlns="http://www.w3.org/2000/svg" width="97" height="97" viewBox="0 0 97 97"><g><g><path d="M97.001 48.5C97.001 75.244 75.244 97 48.5 97 21.756 97.001-.002 75.244-.002 48.5-.002 21.756 21.756-.002 48.5-.002 75.244-.002 97 21.756 97 48.5zm-10.319 0c0-21.054-17.13-38.181-38.182-38.181-21.053 0-38.182 17.127-38.182 38.18 0 21.055 17.129 38.182 38.182 38.182S86.682 69.554 86.682 48.5zm-8.911 2.496a3.994 3.994 0 0 1-3.994 3.993h-25.79a3.994 3.994 0 0 1-3.993-3.993V20.795a3.994 3.994 0 0 1 7.987 0v26.207h21.796a3.994 3.994 0 0 1 3.994 3.994z"/></g></g></svg>