<svg width="0" height="0" class="hidden">
  <symbol xmlns="http://www.w3.org/2000/svg" viewBox="0 0 97 97" id="clocks">
    <path d="M97.001 48.5C97.001 75.244 75.244 97 48.5 97 21.756 97.001-.002 75.244-.002 48.5S21.756-.002 48.5-.002C75.244-.002 97 21.756 97 48.5zm-10.319 0c0-21.054-17.13-38.181-38.182-38.181-21.053 0-38.182 17.127-38.182 38.18 0 21.055 17.129 38.182 38.182 38.182S86.682 69.554 86.682 48.5zm-8.911 2.496a3.994 3.994 0 01-3.994 3.993h-25.79a3.994 3.994 0 01-3.993-3.993V20.795a3.994 3.994 0 017.987 0v26.207h21.796a3.994 3.994 0 013.994 3.994z"></path>
  </symbol>
  <symbol xmlns="http://www.w3.org/2000/svg" viewBox="0 0 432 351" id="palette">
    <path d="M425.376 86.116c-6.59 14.2-17.818 24.354-30.855 27.928-.168.332-.338.656-.51.96-8.982 15.79-17.908 30.476-28.084 46.217.25 7.281-.335 14.29-1.736 20.84-5.596 26.2-26.747 49-53.927 58.162-10.586 13.74-20.715 26.133-30.116 36.842-35.023 39.908-47.349 42.199-51.4 42.952-4.494.837-8.813.003-12.22-2.364-10.726-7.452-6.327-23.254-4.672-29.202 2.686-9.643 7.82-22.257 15.259-37.489 3.51-7.187 7.53-14.942 11.952-23.062-3.778-1.206-7.561-1.815-11.264-1.815-13.016 0-22.01 7.694-24.057 20.58-.893 5.62-.335 11.203.256 17.112.574 5.74 1.166 11.662.3 17.59-1.47 10.044-4.958 20.032-10.364 29.69-14.223 25.383-37.977 39.941-65.171 39.941-10.946 0-22.11-2.336-33.177-6.944-44.9-18.69-78.107-62.26-91.108-119.538a187.551 187.551 0 01-2.488-13.08C-6 159.339 9.592 105.928 44.77 64.899 80.132 23.656 130.736 0 183.604 0c2.095 0 4.215.037 6.301.11 47.346 1.66 93.403 22.354 126.364 56.777 7.045 7.358 13.72 15.597 19.856 24.506l.359-.46c-3.352-13.64 3.369-28.032 18.062-38.59 10.39-7.466 20.003-10.89 29.299-14.204 11.529-4.109 21.48-7.656 29.065-18.3a6.006 6.006 0 015.615-2.474 6.004 6.004 0 014.855 3.755c10.91 27.635 11.62 54.27 1.996 74.995zm-145.632 3.812c-1.514-6.673-5.536-12.355-11.32-16a25.485 25.485 0 00-13.61-3.943c-8.863 0-16.969 4.475-21.685 11.97-3.644 5.79-4.814 12.654-3.299 19.326 1.515 6.672 5.536 12.354 11.322 16a25.496 25.496 0 0013.61 3.943c8.862 0 16.968-4.475 21.683-11.97 3.642-5.79 4.814-12.653 3.3-19.326zm-28.857 163.193c-8.06 15.777-13.852 29.094-16.882 38.796 7.851-6.349 18.04-16.6 29.683-29.878 20.845-23.77 45.252-55.926 68.725-90.542 14.286-21.06 26.085-39.668 37.059-58.45-4.518-1.556-8.942-3.827-13.17-6.764a70.286 70.286 0 01-7.015-5.537c-12.998 16.872-26.682 35.84-39.62 54.922-23.492 34.63-44.367 69.24-58.78 97.453zM104.168 143.533c7.517-11.95 3.92-27.797-8.022-35.325a25.49 25.49 0 00-13.613-3.943c-8.862 0-16.967 4.475-21.68 11.968-3.645 5.791-4.817 12.655-3.302 19.328 1.514 6.673 5.535 12.354 11.32 16a25.495 25.495 0 0013.612 3.943c8.86 0 16.967-4.475 21.685-11.971zm-51.815 87.703c1.514 6.672 5.534 12.353 11.318 16a25.504 25.504 0 0013.615 3.943c8.862 0 16.967-4.475 21.68-11.968 3.646-5.792 4.818-12.655 3.303-19.325-1.515-6.674-5.536-12.356-11.32-16.001a25.505 25.505 0 00-13.612-3.943c-8.863 0-16.967 4.474-21.682 11.97-3.642 5.79-4.814 12.653-3.302 19.324zm81.97-152.14c1.514 6.674 5.534 12.355 11.317 16a25.488 25.488 0 0013.61 3.943c8.863 0 16.968-4.475 21.685-11.97 7.517-11.952 3.92-27.8-8.022-35.327a25.495 25.495 0 00-13.61-3.942c-8.862 0-16.967 4.475-21.682 11.97-3.643 5.791-4.815 12.654-3.299 19.326z"></path>
  </symbol>
  <symbol xmlns="http://www.w3.org/2000/svg" viewBox="0 0 418 512" id="calculator">
    <path d="M417.999 49.78v412.44c0 27.448-22.335 49.78-49.79 49.78H49.79C22.336 512 0 489.669 0 462.22V49.78C0 22.332 22.335 0 49.79 0h318.42c27.454 0 49.79 22.332 49.789 49.78zM70.507 86.526v60.423c0 10.659 8.644 19.3 19.305 19.3h238.375c10.661 0 19.305-8.641 19.305-19.3V86.526c0-10.659-8.644-19.3-19.305-19.3H89.811c-10.661 0-19.305 8.641-19.305 19.3zm62.479 315.326a7.789 7.789 0 00-7.79-7.788H51.803a7.789 7.789 0 00-7.79 7.788v41.015a7.79 7.79 0 007.79 7.787h73.393a7.788 7.788 0 007.79-7.787zm0-87.282a7.789 7.789 0 00-7.79-7.788H51.803a7.789 7.789 0 00-7.79 7.788v41.015a7.79 7.79 0 007.79 7.787h73.393a7.788 7.788 0 007.79-7.787zm0-88.027a7.79 7.79 0 00-7.79-7.787H51.803a7.788 7.788 0 00-7.79 7.787v41.015a7.789 7.789 0 007.79 7.788h73.393a7.789 7.789 0 007.79-7.788zm121.618 175.309a7.789 7.789 0 00-7.789-7.788h-73.394a7.789 7.789 0 00-7.788 7.788v41.015c0 4.3 3.487 7.787 7.788 7.787h73.393a7.788 7.788 0 007.79-7.787zm0-87.282a7.789 7.789 0 00-7.789-7.788h-73.394a7.789 7.789 0 00-7.788 7.788v41.015c0 4.3 3.487 7.787 7.788 7.787h73.393a7.788 7.788 0 007.79-7.787zm0-88.027c0-4.3-3.487-7.787-7.789-7.787h-73.394a7.788 7.788 0 00-7.788 7.787v41.015a7.788 7.788 0 007.788 7.788h73.393a7.789 7.789 0 007.79-7.788zm119.38 88.027a7.788 7.788 0 00-7.788-7.788h-73.393a7.789 7.789 0 00-7.789 7.788v128.297c0 4.3 3.487 7.787 7.789 7.787h73.393a7.788 7.788 0 007.789-7.787V314.57zm0-88.027c0-4.3-3.486-7.787-7.788-7.787h-73.393a7.788 7.788 0 00-7.789 7.787v41.015a7.788 7.788 0 007.789 7.788h73.393a7.79 7.79 0 007.789-7.788z"></path>
  </symbol>
    <symbol xmlns="http://www.w3.org/2000/svg" viewBox="0 0 512 512" id="right-arrow">
    <path d="M506.134 241.843l-.018-.019-104.504-104c-7.829-7.791-20.492-7.762-28.285.068-7.792 7.829-7.762 20.492.067 28.284L443.558 236H20c-11.046 0-20 8.954-20 20s8.954 20 20 20h423.557l-70.162 69.824c-7.829 7.792-7.859 20.455-.067 28.284 7.793 7.831 20.457 7.858 28.285.068l104.504-104 .018-.019c7.833-7.818 7.808-20.522-.001-28.314z"></path>
  </symbol>
  <symbol xmlns="http://www.w3.org/2000/svg" viewBox="0 0 512 512" id="left-arrow">
    <path d="M492 236H68.442l70.164-69.824c7.829-7.792 7.859-20.455.067-28.284-7.792-7.83-20.456-7.859-28.285-.068l-104.504 104-.018.019c-7.809 7.792-7.834 20.496-.002 28.314l.018.019 104.504 104c7.828 7.79 20.492 7.763 28.285-.068 7.792-7.829 7.762-20.492-.067-28.284L68.442 276H492c11.046 0 20-8.954 20-20s-8.954-20-20-20z"></path>
  </symbol>

  <symbol version="1.0" xmlns="http://www.w3.org/2000/svg" viewBox="0 0 256 256" id="Article">
    <path d="M42.5 1.5c-5.9 2.1-11 8.1-12.4 14.4-1.6 7.4-1.6 216.9 0 224.3 1.4 6.5 7.3 13 13.4 14.7 5.6 1.5 163.4 1.5 169 0 5.2-1.5 11.9-8.2 13.4-13.4 1.5-5.6 1.5-221.4 0-227-1.5-5.2-8.2-11.9-13.4-13.4-2.8-.8-28.6-1.1-85-1.1-67.2.1-81.7.3-85 1.5zm166 117.5v99.5h-161l-.3-98.5c-.1-54.2 0-99.1.3-99.8.3-1 17-1.2 80.7-1l80.3.3V119zM134 230.7c8.3 7.4-.2 19.8-10.3 15.2-3.2-1.4-5-4.9-4.9-9.1.1-4.2 4.9-8.8 9.2-8.8 1.8 0 4.2 1.1 6 2.7z"></path>
    <path d="M88.8 36.6c-1.9.6-2.5 2-12.3 30.7-4.8 14.1-6.5 20.1-5.7 20.9 1.1 1.1 8.5 1.4 10.1.4.5-.4 1.7-2.9 2.6-5.6l1.7-5h17.6l1.7 5.1c1.2 3.5 2.4 5.3 4 5.9 2.5 1 9.2.2 10-1 .6-1-15.3-47.3-16.9-49.6-1.3-1.7-9.3-2.8-12.8-1.8zm8.1 23.3c1.1 3.6 2.1 6.9 2.1 7.3 0 .4-2.2.8-5 .8-3.2 0-5-.4-5-1.2 0-2.5 4.4-14.8 5.1-14.1.3.5 1.6 3.7 2.8 7.2zm32.3-9.7l.3 5.3h63v-10l-31.8-.3-31.8-.2.3 5.2zm.5 23.5c-.4.3-.7 2.8-.7 5.5V84l31.8-.2 31.7-.3v-10l-31.1-.3c-17.1-.1-31.3.1-31.7.5zm-66.3 29.7c-.3.8-.4 2.9-.2 4.8l.3 3.3 36.3.3 36.2.2v-10h-36c-30.1 0-36.2.2-36.6 1.4zm.3 27.3c-1 .9-.8 7.5.1 9.1.7 1 14.3 1.2 64.8 1l63.9-.3v-10l-64.1-.3c-35.2-.1-64.4.1-64.7.5zm-.3 28.7c-.3.8-.4 3.1-.2 5.2l.3 3.9h129v-10l-64.3-.3c-54.4-.2-64.3 0-64.8 1.2zm.3 28.3c-.9.8-.9 6.6-.1 8.7.5 1.4 4.7 1.6 37 1.6H137l.6-2.4c.3-1.3.4-3.7.2-5.2l-.3-2.9-36.6-.3c-20.1-.1-36.8.1-37.2.5z"></path>
  </symbol>
</svg>