<svg xmlns="http://www.w3.org/2000/svg" width="432" height="351" viewBox="0 0 432 351"><g><g><path d="M425.376 86.116c-6.59 14.2-17.818 24.354-30.855 27.928-.168.332-.338.656-.51.96-8.982 15.79-17.908 30.476-28.084 46.217.25 7.281-.335 14.29-1.736 20.84-5.596 26.2-26.747 49-53.927 58.162-10.586 13.74-20.715 26.133-30.116 36.842-35.023 39.908-47.349 42.199-51.4 42.952-4.494.837-8.813.003-12.22-2.364-10.726-7.452-6.327-23.254-4.672-29.202 2.686-9.643 7.82-22.257 15.259-37.489 3.51-7.187 7.53-14.942 11.952-23.062-3.778-1.206-7.561-1.815-11.264-1.815-13.016 0-22.01 7.694-24.057 20.58-.893 5.62-.335 11.203.256 17.112.574 5.74 1.166 11.662.3 17.59-1.47 10.044-4.958 20.032-10.364 29.69-14.223 25.383-37.977 39.941-65.171 39.941-10.946 0-22.11-2.336-33.177-6.944-44.9-18.69-78.107-62.26-91.108-119.538a187.551 187.551 0 0 1-2.488-13.08C-6 159.339 9.592 105.928 44.77 64.899 80.132 23.656 130.736 0 183.604 0c2.095 0 4.215.037 6.301.11 47.346 1.66 93.403 22.354 126.364 56.777 7.045 7.358 13.72 15.597 19.856 24.506l.359-.46c-3.352-13.64 3.369-28.032 18.062-38.59 10.39-7.466 20.003-10.89 29.299-14.204 11.529-4.109 21.48-7.656 29.065-18.3a6.006 6.006 0 0 1 5.615-2.474 6.004 6.004 0 0 1 4.855 3.755c10.91 27.635 11.62 54.27 1.996 74.995zm-145.632 3.812c-1.514-6.673-5.536-12.355-11.32-16a25.485 25.485 0 0 0-13.61-3.943c-8.863 0-16.969 4.475-21.685 11.97-3.644 5.79-4.814 12.654-3.299 19.326 1.515 6.672 5.536 12.354 11.322 16a25.496 25.496 0 0 0 13.61 3.943c8.862 0 16.968-4.475 21.683-11.97 3.642-5.79 4.814-12.653 3.3-19.326zm-28.857 163.193c-8.06 15.777-13.852 29.094-16.882 38.796 7.851-6.349 18.04-16.6 29.683-29.878 20.845-23.77 45.252-55.926 68.725-90.542 14.286-21.06 26.085-39.668 37.059-58.45-4.518-1.556-8.942-3.827-13.17-6.764a70.286 70.286 0 0 1-7.015-5.537c-12.998 16.872-26.682 35.84-39.62 54.922-23.492 34.63-44.367 69.24-58.78 97.453zM104.168 143.533c7.517-11.95 3.92-27.797-8.022-35.325a25.49 25.49 0 0 0-13.613-3.943c-8.862 0-16.967 4.475-21.68 11.968-3.645 5.791-4.817 12.655-3.302 19.328 1.514 6.673 5.535 12.354 11.32 16a25.495 25.495 0 0 0 13.612 3.943c8.86 0 16.967-4.475 21.685-11.971zm-51.815 87.703c1.514 6.672 5.534 12.353 11.318 16a25.504 25.504 0 0 0 13.615 3.943c8.862 0 16.967-4.475 21.68-11.968 3.646-5.792 4.818-12.655 3.303-19.325-1.515-6.674-5.536-12.356-11.32-16.001a25.505 25.505 0 0 0-13.612-3.943c-8.863 0-16.967 4.474-21.682 11.97-3.642 5.79-4.814 12.653-3.302 19.324zm81.97-152.14c1.514 6.674 5.534 12.355 11.317 16a25.488 25.488 0 0 0 13.61 3.943c8.863 0 16.968-4.475 21.685-11.97 7.517-11.952 3.92-27.8-8.022-35.327a25.495 25.495 0 0 0-13.61-3.942c-8.862 0-16.967 4.475-21.682 11.97-3.643 5.791-4.815 12.654-3.299 19.326z"/></g></g></svg>